PathFileType   4   (X/Y/Z)																																																																																																																							
DataRate	CameraRate	NumFrames	NumMarkers	Units	OrigDataRate	OrigDataStartFrame	OrigNumFrames																																																																																																																
120	120	8	37	mm	120	86	136																																																																																																																
Frame#	Time	Sternum	R.Acromium	L.Acromium	Top.Head	R.ASIS	L.ASIS	V.Sacral	R.Thigh.Upper	R.Thigh.Front	R.Thigh.Rear	R.Knee.Lat	R.Knee.Med	R.Shank.Upper	R.Shank.Front	R.Shank.Rear	R.Ankle.Lat	R.Ankle.Med	R.Heel	R.Midfoot.Sup	R.Midfoot.Lat	R.Toe.Lat	R.Toe.Med	R.Toe.Tip	L.Thigh.Upper	L.Thigh.Front	L.Thigh.Rear	L.Knee.Lat	L.Knee.Med	L.Shank.Upper	L.Shank.Front	L.Shank.Rear	L.Ankle.Lat	L.Ankle.Med	L.Heel	L.Midfoot.Sup	L.Midfoot.Lat	L.Toe.Lat	L.Toe.Med	L.Toe.Tip																																																																															
 	 	X1	Y1	Z1	X2	Y2	Z2	X3	Y3	Z3	X4	Y4	Z4	X5	Y5	Z5	X6	Y6	Z6	X7	Y7	Z7	X8	Y8	Z8	X9	Y9	Z9	X10	Y10	Z10	X11	Y11	Z11	X12	Y12	Z12	X13	Y13	Z13	X14	Y14	Z14	X15	Y15	Z15	X16	Y16	Z16	X17	Y17	Z17	X18	Y18	Z18	X19	Y19	Z19	X20	Y20	Z20	X21	Y21	Z21	X22	Y22	Z22	X23	Y23	Z23	X24	Y24	Z24	X25	Y25	Z25	X26	Y26	Z26	X27	Y27	Z27	X28	Y28	Z28	X29	Y29	Z29	X30	Y30	Z30	X31	Y31	Z31	X32	Y32	Z32	X33	Y33	Z33	X34	Y34	Z34	X35	Y35	Z35	X36	Y36	Z36	X37	Y37	Z37	X38	Y38	Z38	X39	Y39	Z39	
																																																																																																																							
	86	0.94167	2096.010487	-0.001000353	1246.343592	2030.534592	-161.6639114	1321.965663	2033.203371	164.9109026	1321.321728	2163.969747	-10.07056321	1529.986615	2078.899922	-126.4287728	883.1120791	2084.49719	128.1563878	874.811707	1889.965684	-6.022778891	897.8345649	2067.80227	-163.1570236	597.8894512	2130.852594	-74.72940176	551.8849847	2079.07407	-154.4047096	485.8382361	2057.713755	-137.316947	401.0020732	2058.997813	-24.75841468	385.4851845	2025.684253	-149.3438724	370.2979821	2096.306108	-96.85682453	333.0748745	2037.119705	-158.2831336	287.5324447	2026.401982	-134.0955655	12.59058824	2034.551066	-48.0330811	26.21621048	1963.63599	-83.91925551	-8.339553952	2101.926373	-49.92190453	0.135830302	2096.519041	-153.2800315	-18.79822707	2182.349147	-162.0397613	-43.44235737	2184.820408	-57.59368751	-30.89264055	2243.512839	-88.18151523	-31.4907594	2051.033019	167.6781368	606.3419769	2129.574023	97.4394069	581.8503816	2060.742889	153.3828701	505.4896171	2058.897733	138.945524	382.4179008	2059.892938	31.06670304	383.2771044	2002.728722	156.0706667	375.8827398	1988.219941	102.6419486	313.2682117	1959.214572	166.4841022	365.2865631	1722.365475	133.6260322	176.3590607	1742.927615	45.5255286	186.203609	1673.629975	81.19863714	232.2590356	1755.343801	55.77109965	87.7331617	1746.861737	150.766436	103.2787868	1756.393228	160.8566492	39.06796634	1764.238513	62.45973316	24.64871632	1787.637665	86.83216932	-16.56737998
	87	0.95	2102.751623	-0.001000353	1246.270798	2037.48821	-161.6639114	1322.076322	2040.155172	164.9109026	1321.424901	2171.506626	-10.07056321	1529.721985	2084.757553	-126.4287728	883.3997025	2090.353527	128.1563878	875.0984581	1895.825612	-6.022778891	898.1516356	2071.637463	-163.1570236	597.3100488	2134.20298	-74.72940176	550.6483901	2081.736227	-154.4047096	485.147028	2059.489421	-137.316947	400.5390072	2060.611052	-24.75841468	385.0095325	2027.386075	-149.3438724	370.0469763	2097.821573	-96.85682453	332.4724275	2038.40897	-158.2831336	287.2254844	2026.321367	-134.0955655	12.34044692	2034.538245	-48.0330811	25.92529375	1963.531559	-83.91925551	-8.529526638	2101.832365	-49.92190453	-0.22595676	2096.401515	-153.2800315	-19.15328162	2182.200937	-162.0397613	-43.90402565	2184.687787	-57.59368751	-31.35738874	2243.379429	-88.18151523	-32.02842484	2060.517782	167.6781368	608.0501157	2139.532349	97.4394069	585.1323105	2072.240301	153.3828701	507.4118397	2072.853943	138.945524	384.3278221	2073.831787	31.06670304	385.2067341	2016.494939	156.0706667	377.0016529	2002.715037	102.6419486	314.2226903	1973.106911	166.4841022	365.9003371	1738.470114	133.6260322	174.2322138	1758.916421	45.5255286	184.3151332	1688.141281	81.19863714	228.7287148	1774.090106	55.77109965	86.68056423	1765.152379	150.766436	101.9687592	1776.577112	160.8566492	38.06763039	1784.845054	62.45973316	23.88650208	1809.451907	86.83216932	-16.62016012
	88	0.95833	2109.405445	-0.001000353	1246.22941	2044.349466	-161.6639114	1322.213028	2047.014637	164.9109026	1321.554319	2178.934913	-10.07056321	1529.491619	2090.562942	-126.4287728	883.73697	2096.159443	128.1563878	875.4360813	1901.630064	-6.022778891	898.4768964	2075.432721	-163.1570236	596.7805533	2137.50679	-74.72940176	549.4670855	2084.35784	-154.4047096	484.5180462	2061.227351	-137.316947	400.1473283	2062.186501	-24.75841468	384.606972	2029.0534	-149.3438724	369.8664484	2099.301781	-96.85682453	331.9432224	2039.665625	-158.2831336	286.9913351	2026.215604	-134.0955655	12.1695912	2034.499719	-48.0330811	25.71354123	1963.402177	-83.91925551	-8.640779885	2101.713107	-49.92190453	-0.507585034	2096.258945	-153.2800315	-19.42820542	2182.027812	-162.0397613	-44.28462448	2184.530116	-57.59368751	-31.74106057	2243.220887	-88.18151523	-32.48439668	2069.867842	167.6781368	609.827994	2149.315641	97.4394069	588.4603814	2083.556961	153.3828701	509.4383129	2086.578448	138.945524	386.3898567	2087.538909	31.06670304	387.2877305	2030.166554	156.0706667	378.1627978	2017.293344	102.6419486	315.1916589	1986.943115	166.4841022	366.4369895	1755.09453	133.6260322	171.4053781	1775.393318	45.5255286	181.7820809	1703.042324	81.19863714	224.2847362	1793.604638	55.77109965	85.13250004	1784.170208	150.766436	100.1192738	1797.685004	160.8566492	36.62731321	1806.413694	62.45973316	22.72503862	1832.336084	86.83216932	-16.95262001
	89	0.96667	2115.964931	-0.001000353	1246.219905	2051.108522	-161.6639114	1322.373939	2053.771956	164.9109026	1321.70824	2186.237312	-10.07056321	1529.298725	2096.318913	-126.4287728	884.1159632	2101.917537	128.1563878	875.816505	1907.382275	-6.022778891	898.8076049	2079.185676	-163.1570236	596.29459	2140.761012	-74.72940176	548.3338528	2086.935014	-154.4047096	483.9447969	2062.922503	-137.316947	399.8208591	2063.718906	-24.75841468	384.271313	2030.681386	-149.3438724	369.750359	2100.741873	-96.85682453	331.4811262	2040.884738	-158.2831336	286.8239137	2026.079448	-134.0955655	12.07184846	2034.430262	-48.0330811	25.57477614	1963.242617	-83.91925551	-8.67955392	2101.56337	-49.92190453	-0.715168369	2096.08612	-153.2800315	-19.62911807	2181.824587	-162.0397613	-44.59019626	2184.342198	-57.59368751	-32.04969566	2243.032019	-88.18151523	-32.86466108	2079.076598	167.6781368	611.6621781	2158.918237	97.4394069	591.8167718	2094.681735	153.3828701	511.5524396	2100.054214	138.945524	388.5841981	2100.997341	31.06670304	389.5002631	2043.728663	156.0706667	379.356669	2031.93562	102.6419486	316.1743298	2000.712348	166.4841022	366.8924483	1772.237357	133.6260322	167.9193991	1792.355484	45.5255286	178.6421645	1718.36337	81.19863714	218.967462	1813.845931	55.77109965	83.14420133	1803.881383	150.766436	97.78386144	1819.658975	160.8566492	34.81604125	1828.879436	62.45973316	21.23493799	1856.204714	86.83216932	-17.48993879
	90	0.975	2122.425934	-0.001000353	1246.239291	2057.758718	-161.6639114	1322.554046	2060.420492	164.9109026	1321.881739	2193.400621	-10.07056321	1529.142843	2102.028866	-126.4287728	884.5236197	2107.630824	128.1563878	876.226412	1913.086339	-6.022778891	899.1393349	2082.893883	-163.1570236	595.8429718	2143.962796	-74.72940176	547.2390393	2089.464414	-154.4047096	483.4180795	2064.570889	-137.316947	399.5506245	2065.204157	-24.75841468	383.9935807	2032.266162	-149.3438724	369.6898167	2102.137952	-96.85682453	331.0771377	2042.062329	-158.2831336	286.7142851	2025.908536	-134.0955655	12.03820505	2034.325531	-48.0330811	25.49997825	1963.048511	-83.91925551	-8.654853422	2101.378794	-49.92190453	-0.857744271	2095.878675	-153.2800315	-19.76505653	2181.586894	-162.0397613	-44.82979956	2184.119669	-57.59368751	-32.29235266	2242.808461	-88.18151523	-33.17829079	2088.137115	167.6781368	613.5356533	2168.334423	97.4394069	595.1802909	2105.603529	153.3828701	513.7338277	2113.264672	138.945524	390.8869358	2114.190579	31.06670304	391.8204025	2057.166901	156.0706667	380.5705041	2046.622843	102.6419486	317.1677698	2014.404899	166.4841022	367.2599286	1789.900449	133.6260322	163.8174361	1809.803081	45.5255286	174.9350771	1734.137609	81.19863714	212.8204196	1834.775926	55.77109965	80.77191804	1824.255425	150.766436	95.01730024	1842.44433	160.8566492	32.7032368	1852.180562	62.45973316	19.48699499	1880.975734	86.83216932	-18.15772561
	91	0.98333	2128.787757	-0.001000353	1246.281469	2064.297311	-161.6639114	1322.745663	2066.957522	164.9109026	1322.067199	2200.416911	-10.07056321	1529.020023	2107.696932	-126.4287728	884.9429596	2113.302945	128.1563878	876.6484907	1918.747284	-6.022778891	899.4663343	2086.555301	-163.1570236	595.4143643	2147.109919	-74.72940176	546.1711665	2091.943668	-154.4047096	482.9266149	2066.169912	-137.316947	399.3254721	2066.63961	-24.75841468	383.762631	2033.805178	-149.3438724	369.673705	2103.487435	-96.85682453	330.7200253	2043.195728	-158.2831336	286.6512906	2025.699793	-134.0955655	12.05743378	2034.182475	-48.0330811	25.47791256	1962.81677	-83.91925551	-8.57787411	2101.1563	-49.92190453	-0.946588194	2095.633521	-153.2800315	-19.84729383	2181.311634	-162.0397613	-45.01475799	2183.859435	-57.59368751	-32.48035616	2242.547123	-88.18151523	-33.43664438	2097.042453	167.6781368	615.4285671	2177.558697	97.4394069	598.5270296	2116.311489	153.3828701	515.9590527	2126.193758	138.945524	393.2708596	2127.102627	31.06670304	394.2209237	2070.467519	156.0706667	381.7888979	2061.336405	102.6419486	318.1673085	2028.012179	166.4841022	367.5304146	1808.088668	133.6260322	159.1443661	1827.739075	45.5255286	170.7019719	1750.400937	81.19863714	205.8903629	1856.359439	55.77109965	78.07145444	1845.264715	150.766436	91.87431477	1865.988784	160.8566492	30.35690468	1876.257775	62.45973316	17.55022364	1906.569551	86.83216932	-18.88441861
	92	0.99167	2135.053435	-0.001000353	1246.337819	2070.725892	-161.6639114	1322.93911	2073.384653	164.9109026	1322.254985	2207.284246	-10.07056321	1528.923267	2113.328082	-126.4287728	885.3545794	2118.938307	128.1563878	877.0629594	1924.371081	-6.022778891	899.7819653	2090.168731	-163.1570236	594.9961104	2150.201195	-74.72940176	545.1176826	2094.371703	-154.4047096	482.4578357	2067.718612	-137.316947	399.1328676	2068.024324	-24.75841468	383.5659418	2035.297457	-149.3438724	369.6894904	2104.789303	-96.85682453	330.3971309	2044.283829	-158.2831336	286.6223558	2025.451662	-134.0955655	12.11690326	2033.999561	-48.0330811	25.49593817	1962.545836	-83.91925551	-8.461247024	2100.894337	-49.92190453	-0.994348683	2095.349103	-153.2800315	-19.88847853	2180.99725	-162.0397613	-45.15773208	2183.559943	-57.59368751	-32.62636653	2242.246453	-88.18151523	-33.65238982	2105.786062	167.6781368	617.3191304	2186.586128	97.4394069	601.8311746	2126.795267	153.3828701	518.2025659	2138.826036	138.945524	395.7063923	2139.718115	31.06670304	396.6722378	2083.617506	156.0706667	382.9946226	2076.058242	102.6419486	319.1671882	2041.526731	166.4841022	367.6934185	1826.809449	133.6260322	153.946875	1846.168839	45.5255286	165.9855949	1767.191425	81.19863714	198.2279595	1878.563567	55.77109965	75.09744456	1866.883913	150.766436	88.40900166	1890.241652	160.8566492	27.8425521	1901.05338	62.45973316	15.49063761	1932.908207	86.83216932	-19.60290755
	93	1	2141.22973	-0.001000353	1246.397939	2077.050456	-161.6639114	1323.123497	2079.707889	164.9109026	1322.434231	2214.006931	-10.07056321	1528.843163	2118.928156	-126.4287728	885.7382676	2124.542175	128.1563878	877.4492158	1929.964572	-6.022778891	900.0791813	2093.73423	-163.1570236	594.5751478	2153.236845	-74.72940176	544.06581	2096.749041	-154.4047096	481.9987774	2069.217875	-137.316947	398.9597956	2069.359249	-24.75841468	383.39051	2036.743802	-149.3438724	369.7241433	2106.044293	-96.85682453	330.0952653	2045.327258	-158.2831336	286.6144086	2025.164178	-134.0955655	12.20350467	2033.776854	-48.0330811	25.54093173	1962.235764	-83.91925551	-8.318158991	2100.592955	-49.92190453	-1.014075131	2095.025491	-153.2800315	-19.90166623	2180.643841	-162.0397613	-45.27169352	2183.22128	-57.59368751	-32.74335243	2241.906542	-88.18151523	-33.83843764	2114.362188	167.6781368	619.1846014	2195.41273	97.4394069	605.0659205	2137.045341	153.3828701	520.4376793	2151.146903	138.945524	398.1625883	2152.022514	31.06670304	399.1433886	2096.604705	156.0706667	384.1695817	2090.770863	102.6419486	320.1613779	2054.942234	166.4841022	367.7379438	1846.072076	133.6260322	148.2741586	1865.099494	45.5255286	160.8309926	1784.548374	81.19863714	189.8889813	1901.357035	55.77109965	71.90332858	1889.089276	150.766436	84.67493605	1915.153111	160.8566492	25.2228098	1926.510573	62.45973316	13.37075082	1959.914753	86.83216932	-20.25137958
